<svg xmlns="http://www.w3.org/2000/svg" version="1.1" xmlns:xlink="http://www.w3.org/1999/xlink" xmlns:svgjs="http://svgjs.dev/svgjs" width="277.8" height="277.8"><svg id="SvgjsSvg1002" xmlns="http://www.w3.org/2000/svg" viewBox="0 0 277.8 277.8"><defs><style>.cls-1{fill:#08005b;}.cls-2{fill:#f08080;}.cls-3{fill:#a6bab7;stroke:#333;stroke-miterlimit:10;stroke-width:.2px;}</style></defs><path class="cls-3" d="M273.9,273.9C-38.4,278.7-.7,315.7,3.9,3.9,316.1-.9,278.5-37.9,273.9,273.9Z"></path><path class="cls-2" d="M195.2,220c-5,8.3-17.3,21.3-36,33.3-43.4,27.7-93.5,21.2-125.8-29.3C2.7,175.8,14.5,122.3,62.2,91.8c19.2-12.3,33.9-15.9,40.9-16.5l5.6,19.3c-9.9,1.2-22.4,5.3-35.1,13.4-36.1,23-45.3,61.4-19.5,101.8,24.1,37.7,61.2,48,98.7,24.1,12.1-7.7,22.8-18.1,28.3-27.1l14.2,13.1Z"></path><path class="cls-1" d="M133.6,178.8c11.8,4.5,28.3,7,44.6,3.9,24.1-4.6,35.8-20,32.3-38.5-3.3-17.1-14.9-25-41.4-29.8-31.8-4.9-53.2-16.8-58.1-42.6-5.4-28.5,14.1-54.1,49.6-60.9,18.7-3.6,33.1-1.8,42.1,1.2l-2.8,20.5c-6.6-2.1-19.8-5.2-36.4-2.1-24.9,4.8-31.6,21.5-29.2,33.9,3.3,17.1,16,23.4,43,28.3,33.2,6,51.7,17.9,56.9,44.8,5.4,28.2-10.8,56.6-53.9,64.8-17.6,3.4-37.8,1.9-48.8-2.8l2.2-20.9Z"></path><path class="cls-1" d="M166.3,126.4c-2.7,1.7-5.1,3.9-6.3,6.9s-.7,4.9.3,7.1c2.2,4.7,7.8,6.8,12.7,6s5.9-1.9,7.8-4.2,2.7-4.5,2.9-7.2c.3-4.5-2-9.2-5.7-11.8s-4.4-1.9-6.8-1.3-5.1,3-6.5,5.5,1.6,3.2,2.6,1.5,1.2-1.9,2.1-2.7.5-.4,1-.7.4-.2.6-.3.4-.2.1,0c.1,0,.2,0,.4-.1.2,0,.4-.1.6-.2s.7-.1.3,0c.4,0,.9,0,1.3,0s-.1,0,.3,0,.4,0,.6.1.4.1.6.2.2,0,.2,0c-.3-.1,0,0,.1,0,.4.2.7.4,1.1.6s.2.1.3.2c.3.2-.1-.1,0,0s.4.3.5.5c.3.3.6.6.9.9s.2.2.3.3c-.2-.2,0,0,0,0,.2.2.3.4.5.7.2.4.5.8.7,1.2s.2.4.3.6c-.1-.3,0,.1,0,.2,0,.1,0,.3.1.4.2.4.3.9.4,1.3s0,.5.1.7c0,.4,0-.2,0,0s0,.3,0,.5c0,.5,0,.9,0,1.4s0,.5,0,.7c0-.3,0,0,0,0,0,.2,0,.4-.1.6-.2,1.1-.5,1.7-1,2.6s-1.1,1.7-1.9,2.4-2.2,1.4-3.4,1.8c-2.1.7-4.2.8-6.2.1s-.5-.2-.7-.2-.3-.1,0,0c-.1,0-.3-.1-.4-.2-.5-.2-.9-.5-1.3-.8s-.2-.1-.3-.2c.2.2,0,0,0,0-.2-.2-.4-.3-.5-.5s-.3-.3-.5-.5-.2-.2-.2-.3c-.2-.3,0,.1-.1-.1-.7-1-1-1.5-1.2-2.6s0-.2,0-.3c0-.4,0,.2,0-.1s0-.5,0-.8,0-.3,0-.4,0-.5,0-.2c0-.3.1-.6.2-.8.3-1.1.8-2,1.5-2.9,1-1.3,2.3-2.3,3.7-3.1s.1-3.6-1.5-2.6h0Z"></path><path class="cls-1" d="M168.8,145.8c-2.4,14.8-14.6,26.9-29.4,29.3-1.9.3-1.1,3.2.8,2.9,12.2-1.9,23.1-10.3,28.4-21.5s2.6-6.5,3.1-10-2.6-2.7-2.9-.8h0Z"></path><path class="cls-1" d="M154.3,153c3.9-2.5,8.8-.8,12.8.3s9.7,2.8,14.3.9,5.2-3.6,6.8-6.4-1.6-3.2-2.6-1.5-3,4.3-5.4,5.2-4.3.7-6.4.4c-4.7-.8-9.2-2.8-14-3.1s-5,.3-7.1,1.6-.1,3.6,1.5,2.6h0Z"></path><path class="cls-1" d="M158.8,167.1c5.1,2.1,5.8,9.9,1.2,12.9s0,3.7,1.5,2.6c3.2-2.1,4.9-5.9,4.5-9.7s-2.8-7.2-6.4-8.7-1.6.3-1.8,1,.3,1.5,1,1.8h0Z"></path><path class="cls-1" d="M56.1,182.2c-3.4,1.7-6.1,4.5-7,8.2s0,7.1,1.6,10.2,4.3,5.9,7.5,7.4,3.6,1.4,5.5,1.5,3.8-.3,5.7-1.1c6.1-2.7,11.5-7.9,13.1-14.5s.1-10.9-4.2-14.3c-6.6-5.2-15.9-2.3-22.6,1.3-1.7.9-.2,3.5,1.5,2.6,5-2.7,12.1-5.4,17.6-2.6s5.5,6.1,5.1,10.4-4.2,9.8-8.5,12.6-3,1.7-4.6,2.3-3.1.4-4.6,0c-3-.7-5.6-2.5-7.5-4.9s-3.2-5.8-3-9,2.7-6.2,5.8-7.7.2-3.4-1.5-2.6h0Z"></path><path class="cls-1" d="M69.6,206.8c-2.7,5.1-3.6,11.1-1.6,16.6s5.2,8.7,9.6,11,9.1,3.2,13.5,1.6,8.3-6.5,9.7-11.6.7-2,.6-2.8h0c0-.5,0-.4-.3,0,0-.1.4,0,.2-.1.2,0,.1,0,.3,0,1.3.3,2.5,1.5,3.5,2.4,2.6,2.2,5.6,5.3,9.3,5s1.9-3.2,0-3c-2.8.2-5.2-2.4-7.2-4.1s-4.3-3.9-7-3.1-1.3.6-1.6,1.2-.4,1.9-.6,2.7c-.3,1.4-.7,2.8-1.3,4.1-.9,2-2.3,4-4.2,5.2-7.2,5-17.2-.2-20.9-7.4s-2.2-11.1.4-16.2-1.7-3.2-2.6-1.5h0Z"></path><path class="cls-1" d="M94.6,233.8c3.3,1.5,5.9,4,7.4,7.3s2.1,6.8,2.7,10.3,1.1,1.2,1.8,1,1.2-1,1-1.8c-.6-3.8-1.4-7.7-3.1-11.2s-4.7-6.5-8.4-8.1-1.6-.2-2.1.5-.2,1.7.5,2.1h0Z"></path><path class="cls-1" d="M69,218.9c-2.7,1.1-5.5,2.1-8.3,2.9s-1.8.4-2.7.6c.6-.1,0,0-.2,0s-.3,0-.5,0-.3,0-.4,0-.1,0-.2,0c-.1,0,.5,0,.2,0s-.2,0-.3,0c-.3,0,.3.2.2,0s0,0-.1,0c-.2,0,.4.3.2.2s0,0,0,0c0,0,.3.4.2.2s.2.4.1.2c0-.3,0,.5,0,.2s-.1.4,0,.1,0-.2,0-.3c-.2.6,0,.2,0,0s.1-.2.2-.3,0-.1.1-.2,0,0,0,0c.1-.2-.3.3-.1.1s.5-.5.7-.8c.6-.7,1.3-1.3,2-1.9s1-.8,1.5-1.3.1,0,.1-.1c-.3.3,0,0,0,0,.2-.1.3-.2.5-.4.3-.2.6-.4.9-.7,1.5-1.1,2.9-2.1,4.4-3.1s1-1.3.5-2.1-1.4-1-2.1-.5c-2.6,1.7-5.2,3.5-7.6,5.5s-2.9,2.4-3.9,3.9-.6,1.2-.6,1.9.5,1.5,1.2,1.9,1.4.4,2.2.4,1.9-.2,2.8-.4c3.2-.7,6.3-1.9,9.4-3.1s1.3-1,1-1.8-1.1-1.4-1.8-1h0Z"></path><path class="cls-1" d="M71.4,224.4c4.3-3,9.1-5.2,13.3-8.5s3-2.6,3.6-4.5.1-3.7-.9-5.2c-2-2.9-5.3-4.8-8.3-6.5s-3.2,1.7-1.5,2.6c2.4,1.4,5.1,2.8,6.9,5s.9,1.2,1,1.8.1.8,0,1.5-.6,1-.9,1.4c-.6.7-1.3,1.2-1.9,1.8-1.7,1.3-3.6,2.4-5.5,3.5s-4.8,2.9-7.2,4.4,0,3.7,1.5,2.6h0Z"></path></svg><style>@media (prefers-color-scheme: light) { :root { filter: none; } }
@media (prefers-color-scheme: dark) { :root { filter: none; } }
</style></svg>